<?xml version="1.0" encoding="utf-8"?>
<!-- Generator: Adobe Illustrator 25.0.0, SVG Export Plug-In . SVG Version: 6.00 Build 0)  -->
<svg version="1.1" id="Warstwa_1" xmlns="http://www.w3.org/2000/svg" xmlns:xlink="http://www.w3.org/1999/xlink" x="0px" y="0px"
	 viewBox="0 0 476.8 169.7" style="enable-background:new 0 0 476.8 169.7;" xml:space="preserve">
<style type="text/css">
	.st0{fill:none;stroke:#FFFFFF;stroke-width:4;stroke-linecap:round;stroke-linejoin:round;stroke-miterlimit:10;}
	.st1{fill:#FFFFFF;stroke:#FFFFFF;stroke-width:4;stroke-linecap:round;stroke-linejoin:round;stroke-miterlimit:10;}
	.st2{fill:#FFFFFF;}
	.st3{enable-background:new    ;}
</style>
<g>
	<g>
		<g>
			<line class="st0" x1="4.7" y1="8.7" x2="4.7" y2="164.5"/>
			<polyline class="st1" points="4.7,137 34.3,100.4 68.5,141.4 100.5,77.4 131.1,114.2 162.3,99.1 162.3,164.5 4.7,164.5 			"/>
			<polyline class="st0" points="162.3,99.1 162.3,59.6 133.6,77.4 100.9,30.2 68.5,91.5 38.6,61.6 4.7,94.2 			"/>
		</g>
		<g>
			<polygon class="st2" points="225.8,73.9 225.8,64.7 190,64.7 190,126.1 227.1,126.1 227.1,116.9 201.2,116.9 201.2,98.8 
				224.4,98.8 224.4,89.7 201.2,89.7 201.2,73.9 			"/>
			<path class="st2" d="M231.5,81.7c16.5,44.4,16.5,44.4,16.5,44.4h11l17-44.4h-11.8l-10.4,33.6l-10.2-33.6H231.5z"/>
			<path class="st2" d="M340.7,90.1L340.7,90.1c3.2-9,11.2-10,14.9-9.1l0,0v10.5l0,0c-7-1.1-12.5,1.2-13.7,9.8v24.9h-11.2V91.3
				l-0.4-9.5h9.7l0.5,8.4h0.2V90.1z"/>
			<path class="st2" d="M436.4,83.3L436.4,83.3c-22.3-11.5-42.3,14.9-16.4,24.2l0,0c14,3.3,7.2,18-11.1,8.2l0,0l-2.3,8.2l0,0
				c19.2,8.8,32.8-2,31.5-10.9l0,0c-0.2-10.3-10.1-13-11.7-13.5c-15.3-4.1-6.6-16.4,7.6-8.4l0,0L436.4,83.3z"/>
			<path class="st2" d="M470.5,125.9l-0.2-8.5l0,0c-7.2,1.5-10.3-0.3-10.1-7.8V90h10.7v-8.4h-10.7V70.2l-11,3.1v8.3h-6.3V90h6.3
				v19.3l0,0C449.7,112,446.6,132,470.5,125.9L470.5,125.9z"/>
		</g>
		<g>
			<g class="st3">
				<path class="st2" d="M190.8,138.2c1-0.2,2.8-0.4,4.5-0.4c2.3,0,3.7,0.3,4.8,1.1c1.1,0.6,1.8,1.7,1.8,3.2c0,1.6-1,3-2.8,3.7v0.1
					c1.8,0.5,3.4,1.9,3.4,4.2c0,1.5-0.7,2.7-1.6,3.5c-1.2,1-3.2,1.6-6.3,1.6c-1.7,0-3-0.1-3.8-0.2L190.8,138.2L190.8,138.2z
					 M193.9,144.9h1.6c2.2,0,3.4-1,3.4-2.4c0-1.6-1.2-2.3-3.2-2.3c-0.9,0-1.4,0.1-1.8,0.1V144.9z M193.9,152.7
					c0.4,0.1,0.9,0.1,1.6,0.1c2,0,3.8-0.7,3.8-2.8c0-2-1.7-2.8-3.9-2.8h-1.5L193.9,152.7L193.9,152.7z"/>
				<path class="st2" d="M208.5,139.2c0,0.9-0.7,1.7-1.8,1.7c-1,0-1.7-0.8-1.7-1.7c0-1,0.7-1.7,1.7-1.7
					C207.8,137.5,208.5,138.3,208.5,139.2z M205.2,154.9v-12.3h3.1v12.3H205.2z"/>
				<path class="st2" d="M222.6,151.2c0,1.5,0.1,2.7,0.1,3.7H220l-0.2-1.8l0,0c-0.5,0.9-1.7,2.1-4,2.1c-2.2,0-4.3-1.3-4.3-5.3v-7.2
					h3.1v6.7c0,2,0.7,3.4,2.3,3.4c1.3,0,2.1-0.9,2.4-1.7c0.1-0.3,0.2-0.6,0.2-1v-7.4h3.1V151.2z"/>
			</g>
			<g class="st3">
				<path class="st2" d="M226,146.6c0-1.7,0-2.9-0.1-4h2.7l0.1,2.3h0.1c0.6-1.7,2-2.6,3.4-2.6c0.3,0,0.5,0,0.7,0.1v2.9
					c-0.3,0-0.6-0.1-0.9-0.1c-1.5,0-2.5,0.9-2.8,2.3c-0.1,0.3-0.1,0.6-0.1,0.9v6.4H226V146.6L226,146.6z"/>
			</g>
			<g class="st3">
				<path class="st2" d="M246.4,148.7c0,4.5-3.2,6.5-6.3,6.5c-3.5,0-6.1-2.4-6.1-6.3c0-4,2.6-6.5,6.3-6.5
					C243.9,142.4,246.4,144.9,246.4,148.7z M237.1,148.8c0,2.4,1.2,4.2,3,4.2s3-1.7,3-4.2c0-1.9-0.9-4.1-3-4.1
					C238,144.6,237.1,146.8,237.1,148.8z"/>
			</g>
			<g class="st3">
				<path class="st2" d="M254.1,146.6c0-1.7,0-2.9-0.1-4h2.7l0.1,2.3h0.1c0.6-1.7,2-2.6,3.4-2.6c0.3,0,0.5,0,0.7,0.1v2.9
					c-0.3,0-0.6-0.1-0.9-0.1c-1.5,0-2.5,0.9-2.8,2.3c-0.1,0.3-0.1,0.6-0.1,0.9v6.4h-3.1L254.1,146.6L254.1,146.6z"/>
			</g>
			<g class="st3">
				<path class="st2" d="M272.4,152c0,1.1,0,2.2,0.2,2.9h-2.8l-0.2-1.4h-0.1c-0.7,1-2,1.6-3.6,1.6c-2.5,0-3.9-1.8-3.9-3.7
					c0-3.1,2.7-4.7,7.3-4.6v-0.2c0-0.8-0.3-2.1-2.5-2.1c-1.2,0-2.5,0.4-3.3,0.9l-0.6-2c0.9-0.6,2.5-1.1,4.4-1.1
					c3.9,0,5.1,2.5,5.1,5.2V152L272.4,152z M269.4,148.9c-2.2,0-4.3,0.4-4.3,2.3c0,1.2,0.8,1.8,1.8,1.8c1.3,0,2.1-0.8,2.4-1.7
					c0.1-0.2,0.1-0.5,0.1-0.7V148.9z"/>
				<path class="st2" d="M284.7,154.5c-0.7,0.3-1.9,0.6-3.5,0.6c-3.8,0-6.3-2.5-6.3-6.3c0-3.7,2.5-6.5,6.8-6.5c1.1,0,2.3,0.3,3,0.6
					l-0.6,2.3c-0.5-0.3-1.2-0.5-2.3-0.5c-2.4,0-3.8,1.7-3.8,4c0,2.5,1.6,4,3.8,4c1.1,0,1.8-0.2,2.4-0.5L284.7,154.5z"/>
				<path class="st2" d="M287,137h3.1v7.3l0,0c0.4-0.6,0.9-1.1,1.5-1.4c0.6-0.4,1.4-0.6,2.1-0.6c2.1,0,4.3,1.4,4.3,5.3v7.2h-3.1
					v-6.9c0-1.8-0.7-3.1-2.4-3.1c-1.2,0-2.1,0.8-2.4,1.7c-0.1,0.3-0.1,0.6-0.1,0.9v7.4h-3.1V137H287z"/>
				<path class="st2" d="M312.4,151.2c0,1.5,0.1,2.7,0.1,3.7h-2.7l-0.2-1.8h-0.1c-0.5,0.9-1.7,2.1-4,2.1s-4.3-1.3-4.3-5.3v-7.2h3.1
					v6.7c0,2,0.7,3.4,2.3,3.4c1.3,0,2.1-0.9,2.4-1.7c0.1-0.3,0.2-0.6,0.2-1v-7.4h3.1v8.5H312.4z"/>
				<path class="st2" d="M315.7,146.3c0-1.4,0-2.6-0.1-3.7h2.7l0.2,1.8h0.1c0.6-1,1.9-2.1,3.9-2.1c2.1,0,4.4,1.4,4.4,5.3v7.3h-3.1
					V148c0-1.8-0.7-3.1-2.3-3.1c-1.2,0-2.1,0.9-2.4,1.8c-0.1,0.3-0.2,0.6-0.2,1v7.2h-3.1v-8.6L315.7,146.3L315.7,146.3z"/>
			</g>
			<g class="st3">
				<path class="st2" d="M333.2,148L333.2,148c0.4-0.5,0.7-1,1-1.4l3-4h3.7l-4.6,5l5.2,7.3h-3.7l-3.5-5.4l-1,1.2v4.2h-3.1V137h3.1
					v11H333.2z"/>
			</g>
			<g class="st3">
				<path class="st2" d="M354.5,148.7c0,4.5-3.2,6.5-6.3,6.5c-3.5,0-6.1-2.4-6.1-6.3c0-4,2.6-6.5,6.3-6.5
					C352,142.4,354.5,144.9,354.5,148.7z M345.2,148.8c0,2.4,1.2,4.2,3,4.2s3-1.7,3-4.2c0-1.9-0.9-4.1-3-4.1
					C346.1,144.6,345.2,146.8,345.2,148.8z"/>
			</g>
			<g class="st3">
				<path class="st2" d="M358.7,142.7l1.3,5.6c0.3,1.3,0.6,2.6,0.8,4l0,0c0.3-1.3,0.7-2.7,1-4l1.6-5.6h2.5l1.5,5.4
					c0.4,1.4,0.7,2.8,1,4.1l0,0c0.2-1.3,0.5-2.7,0.8-4.1l1.4-5.4h3l-3.9,12.3h-2.9l-1.5-5c-0.4-1.3-0.7-2.4-0.9-3.9h-0.1
					c-0.3,1.5-0.6,2.7-0.9,3.9l-1.6,5h-2.9l-3.6-12.3H358.7z"/>
			</g>
			<g class="st3">
				<path class="st2" d="M377.5,149.7c0.1,2.2,1.8,3.2,3.8,3.2c1.4,0,2.4-0.2,3.4-0.6l0.5,2.1c-1.1,0.5-2.5,0.8-4.3,0.8
					c-4,0-6.3-2.4-6.3-6.2c0-3.4,2.1-6.6,6-6.6c4,0,5.3,3.3,5.3,6c0,0.6,0,1-0.1,1.3H377.5L377.5,149.7z M382.9,147.5
					c0-1.1-0.5-3-2.5-3c-1.9,0-2.7,1.7-2.8,3H382.9z"/>
				<path class="st2" d="M404.4,154.9c-0.4-0.4-0.8-0.9-1.3-1.4c-1.3,1.1-2.8,1.7-4.8,1.7c-3.7,0-5.6-2.3-5.6-4.8
					c0-2.3,1.3-3.9,3.3-4.9v-0.1c-0.8-1-1.4-2.2-1.4-3.4c0-2.1,1.6-4.4,4.7-4.4c2.4,0,4.2,1.5,4.2,3.8c0,1.8-1,3.2-3.5,4.5v0.1
					c1.2,1.4,2.5,2.9,3.4,3.9c0.7-1.1,1.3-2.7,1.5-4.5h2.8c-0.5,2.6-1.2,4.8-2.6,6.4c1,1.1,1.9,2.1,2.9,3.2h-3.6V154.9z
					 M401.6,151.8c-1-1.1-2.6-2.9-4.3-4.7c-0.8,0.6-1.7,1.4-1.7,2.9c0,1.7,1.2,3,3.1,3C399.9,152.9,400.9,152.4,401.6,151.8z
					 M397.4,141.7c0,1,0.5,1.9,1.2,2.7c1.4-0.9,2.3-1.7,2.3-2.9c0-0.9-0.5-1.9-1.7-1.9C398,139.6,397.4,140.6,397.4,141.7z"/>
				<path class="st2" d="M415.1,154.9v-17h3.6l4.4,7.3c1.1,1.9,2.1,3.9,2.9,5.7h0.1c-0.2-2.3-0.3-4.5-0.3-7.1v-5.9h2.9v17h-3.2
					l-4.4-7.5c-1.1-1.9-2.2-3.9-3-5.8H418c0.1,2.2,0.2,4.4,0.2,7.2v6.1H415.1L415.1,154.9z"/>
				<path class="st2" d="M445.8,154.1c-1.1,0.4-3.2,1-5.4,1c-2.9,0-5.1-0.7-6.7-2.3c-1.5-1.4-2.4-3.7-2.4-6.2c0-5.4,3.8-8.8,9.4-8.8
					c2.1,0,3.7,0.4,4.5,0.8l-0.7,2.5c-0.9-0.4-2.1-0.7-3.9-0.7c-3.6,0-6.2,2.1-6.2,6.1c0,3.9,2.4,6.1,5.9,6.1c1.1,0,1.9-0.2,2.3-0.3
					V148h-3v-2.4h6v8.5H445.8z"/>
				<path class="st2" d="M464,146.3c0,5.7-3.5,8.9-8.1,8.9c-4.8,0-7.8-3.7-7.8-8.6c0-5.2,3.3-8.9,8.1-8.9
					C461.1,137.6,464,141.4,464,146.3z M451.3,146.5c0,3.5,1.7,6.2,4.7,6.2s4.7-2.8,4.7-6.3c0-3.2-1.6-6.2-4.7-6.2
					C453,140.1,451.3,143,451.3,146.5z"/>
			</g>
		</g>
	</g>
	<path class="st2" d="M290,107.3c0.4,8,6.6,11.7,13.9,11.7c5.1,0,8.8-0.7,12.4-2.2l1.8,7.7c-4,1.8-9.1,2.9-15.7,2.9
		c-14.6,0-23-8.8-23-22.6c0-12.4,7.7-24.1,21.9-24.1c14.6,0,19.3,12,19.3,21.9c0,2.2,0,3.6-0.4,4.7H290L290,107.3z M309.6,99.3
		c0-4-1.8-10.9-9.1-10.9c-6.9,0-9.8,6.2-10.2,10.9H309.6z"/>
	<path class="st2" d="M369.7,106.8c0.4,8,6.6,11.7,13.9,11.7c5.1,0,8.8-0.7,12.4-2.2l1.8,7.7c-4,1.8-9.1,2.9-15.7,2.9
		c-14.6,0-23-8.8-23-22.6c0-12.4,7.7-24.1,21.9-24.1c14.6,0,19.3,12,19.3,21.9c0,2.2,0,3.6-0.4,4.7H369.7L369.7,106.8z M389.4,98.8
		c0-4-1.8-10.9-9.1-10.9c-6.9,0-9.8,6.2-10.2,10.9H389.4z"/>
</g>
</svg>
